<svg xmlns="http://www.w3.org/2000/svg" viewBox="0 0 24 24" width="24" height="24" role="img" aria-label="Instagram">
  <title>Instagram</title>
  <defs>
    <linearGradient id="igGrad" x1="0" x2="1" y1="0" y2="1">
      <stop offset="0%" stop-color="#f58529" />
      <stop offset="30%" stop-color="#dd2a7b" />
      <stop offset="60%" stop-color="#8134af" />
      <stop offset="100%" stop-color="#515bd4" />
    </linearGradient>
  </defs>
  <rect x="0" y="0" width="24" height="24" rx="6" fill="url(#igGrad)" />
  <!-- camera outline -->
  <path d="M12 7.2a4.8 4.8 0 1 0 0 9.6 4.8 4.8 0 0 0 0-9.6zm6.3-1.7a1.1 1.1 0 1 1 0 2.2 1.1 1.1 0 0 1 0-2.2z" fill="#fff" />
  <path d="M7.2 3h9.6A4.2 4.2 0 0 1 21 7.2v9.6A4.2 4.2 0 0 1 16.8 21H7.2A4.2 4.2 0 0 1 3 16.8V7.2A4.2 4.2 0 0 1 7.2 3m0-1.2A5.4 5.4 0 0 0 1.8 7.2v9.6A5.4 5.4 0 0 0 7.2 22.2h9.6A5.4 5.4 0 0 0 22.2 16.8V7.2A5.4 5.4 0 0 0 16.8 1.8H7.2z" fill="#fff" />
</svg>
