<svg xmlns="http://www.w3.org/2000/svg" viewBox="0 0 24 24" width="24" height="24" role="img" aria-label="Twitter">
  <title>Twitter</title>
  <path fill="#1DA1F2" d="M23.643 4.937c-.835.37-1.732.62-2.675.732a4.695 4.695 0 0 0 2.048-2.593 9.41 9.41 0 0 1-2.979 1.14 4.678 4.678 0 0 0-7.964 4.266A13.27 13.27 0 0 1 1.671 3.149a4.678 4.678 0 0 0 1.447 6.246 4.656 4.656 0 0 1-2.12-.586v.06a4.68 4.68 0 0 0 3.75 4.588 4.7 4.7 0 0 1-2.114.08 4.682 4.682 0 0 0 4.37 3.247 9.374 9.374 0 0 1-5.807 2.003c-.377 0-.75-.022-1.118-.065a13.24 13.24 0 0 0 7.17 2.102c8.605 0 13.313-7.127 13.313-13.313 0-.203-.005-.406-.014-.607a9.486 9.486 0 0 0 2.335-2.417z" />
</svg>
